<?xml version="1.0" encoding="UTF-8"?>
<svg xmlns="http://www.w3.org/2000/svg" xmlns:xlink="http://www.w3.org/1999/xlink" width="375pt" height="374.999991pt" viewBox="0 0 375 374.999991" version="1.2">
<defs>
<clipPath id="clip1">
  <path d="M 12 13.648438 L 361 13.648438 L 361 341 L 12 341 Z M 12 13.648438 "/>
</clipPath>
<clipPath id="clip2">
  <path d="M 134 286 L 239 286 L 239 361.648438 L 134 361.648438 Z M 134 286 "/>
</clipPath>
<clipPath id="clip3">
  <path d="M 187.5 95 L 337.5 95 L 337.5 178.238281 L 187.5 178.238281 Z M 187.5 95 "/>
</clipPath>
</defs>
<g id="surface1">
<g clip-path="url(#clip1)" clip-rule="nonzero">
<path style=" stroke:none;fill-rule:nonzero;fill:rgb(1.959229%,21.958923%,41.958618%);fill-opacity:1;" d="M 186.707031 13.648438 C 184.316406 13.644531 181.925781 13.695312 179.535156 13.792969 C 177.148438 13.890625 174.761719 14.039062 172.378906 14.234375 C 169.992188 14.429688 167.617188 14.675781 165.242188 14.96875 C 162.867188 15.261719 160.503906 15.605469 158.144531 16 C 155.785156 16.390625 153.433594 16.832031 151.09375 17.320312 C 148.75 17.808594 146.421875 18.34375 144.101562 18.929688 C 141.785156 19.515625 139.476562 20.144531 137.183594 20.824219 C 134.890625 21.507812 132.613281 22.234375 130.351562 23.007812 C 128.089844 23.78125 125.84375 24.601562 123.613281 25.464844 C 121.382812 26.332031 119.175781 27.246094 116.984375 28.203125 C 114.792969 29.160156 112.621094 30.164062 110.46875 31.210938 C 108.320312 32.257812 106.191406 33.347656 104.085938 34.480469 C 101.980469 35.617188 99.902344 36.792969 97.84375 38.015625 C 95.789062 39.234375 93.757812 40.496094 91.753906 41.800781 C 89.746094 43.105469 87.769531 44.449219 85.820312 45.835938 C 83.871094 47.222656 81.953125 48.648438 80.0625 50.113281 C 78.171875 51.578125 76.3125 53.082031 74.484375 54.621094 C 72.65625 56.164062 70.859375 57.742188 69.097656 59.359375 C 67.335938 60.972656 65.605469 62.625 63.910156 64.3125 C 62.214844 66 60.554688 67.71875 58.929688 69.476562 C 57.304688 71.230469 55.71875 73.019531 54.167969 74.839844 C 52.617188 76.660156 51.105469 78.511719 49.632812 80.394531 C 48.15625 82.277344 46.722656 84.191406 45.328125 86.132812 C 43.933594 88.078125 42.578125 90.046875 41.265625 92.042969 C 39.949219 94.042969 38.675781 96.066406 37.445312 98.117188 C 36.214844 100.167969 35.027344 102.242188 33.882812 104.34375 C 32.738281 106.441406 31.636719 108.566406 30.582031 110.710938 C 29.523438 112.855469 28.511719 115.019531 27.542969 117.207031 C 26.574219 119.394531 25.652344 121.601562 24.773438 123.824219 C 23.894531 126.050781 23.066406 128.292969 22.28125 130.550781 C 21.496094 132.808594 20.757812 135.085938 20.066406 137.375 C 19.375 139.664062 18.734375 141.964844 18.136719 144.28125 C 17.539062 146.597656 16.992188 148.925781 16.492188 151.265625 C 15.992188 153.601562 15.539062 155.949219 15.136719 158.308594 C 14.734375 160.664062 14.378906 163.03125 14.074219 165.402344 C 13.769531 167.773438 13.511719 170.148438 13.304688 172.53125 C 13.097656 174.914062 12.9375 177.300781 12.828125 179.691406 C 12.71875 182.078125 12.660156 184.46875 12.648438 186.859375 C 12.636719 189.25 12.675781 191.640625 12.761719 194.03125 C 12.851562 196.421875 12.988281 198.808594 13.175781 201.195312 C 13.359375 203.578125 13.59375 205.957031 13.878906 208.332031 C 14.164062 210.707031 14.496094 213.074219 14.878906 215.433594 C 15.261719 217.796875 15.691406 220.148438 16.171875 222.492188 C 16.648438 224.832031 17.175781 227.164062 17.75 229.488281 C 18.328125 231.808594 18.949219 234.117188 19.617188 236.414062 C 20.289062 238.707031 21.007812 240.988281 21.769531 243.253906 C 22.535156 245.519531 23.347656 247.769531 24.203125 250.003906 C 25.058594 252.234375 25.960938 254.449219 26.910156 256.644531 C 27.859375 258.839844 28.851562 261.015625 29.890625 263.167969 C 30.929688 265.324219 32.011719 267.457031 33.136719 269.566406 C 34.261719 271.675781 35.429688 273.761719 36.644531 275.824219 C 37.855469 277.886719 39.109375 279.921875 40.40625 281.929688 C 41.699219 283.941406 43.039062 285.921875 44.414062 287.878906 C 45.792969 289.832031 47.210938 291.757812 48.667969 293.65625 C 50.125 295.550781 51.621094 297.417969 53.152344 299.25 C 54.6875 301.085938 56.257812 302.890625 57.867188 304.660156 C 59.476562 306.429688 61.121094 308.164062 62.800781 309.867188 C 64.480469 311.570312 66.191406 313.234375 67.941406 314.867188 C 69.691406 316.5 71.472656 318.09375 73.285156 319.652344 C 75.101562 321.210938 76.945312 322.730469 78.824219 324.210938 C 80.699219 325.695312 82.605469 327.136719 84.542969 328.539062 C 86.480469 329.941406 88.445312 331.304688 90.4375 332.628906 C 92.429688 333.949219 94.449219 335.230469 96.496094 336.46875 C 98.539062 337.710938 100.609375 338.90625 102.703125 340.058594 L 108.308594 329.902344 C 105.703125 328.46875 103.136719 326.960938 100.613281 325.382812 C 98.089844 323.804688 95.613281 322.160156 93.179688 320.445312 C 90.746094 318.734375 88.363281 316.953125 86.027344 315.109375 C 83.695312 313.265625 81.410156 311.355469 79.183594 309.386719 C 76.953125 307.417969 74.777344 305.386719 72.660156 303.296875 C 70.539062 301.207031 68.480469 299.0625 66.480469 296.859375 C 64.480469 294.65625 62.542969 292.398438 60.664062 290.089844 C 58.789062 287.78125 56.976562 285.421875 55.230469 283.011719 C 53.484375 280.601562 51.804688 278.148438 50.191406 275.648438 C 48.582031 273.144531 47.039062 270.601562 45.566406 268.015625 C 44.09375 265.429688 42.695312 262.804688 41.367188 260.144531 C 40.039062 257.480469 38.785156 254.78125 37.605469 252.050781 C 36.425781 249.320312 35.324219 246.554688 34.296875 243.765625 C 33.269531 240.972656 32.316406 238.152344 31.445312 235.308594 C 30.574219 232.464844 29.777344 229.597656 29.0625 226.707031 C 28.347656 223.820312 27.714844 220.914062 27.15625 217.992188 C 26.601562 215.066406 26.128906 212.128906 25.734375 209.179688 C 25.339844 206.230469 25.027344 203.273438 24.796875 200.308594 C 24.566406 197.339844 24.414062 194.371094 24.347656 191.394531 C 24.277344 188.421875 24.292969 185.445312 24.386719 182.472656 C 24.484375 179.496094 24.660156 176.527344 24.917969 173.5625 C 25.179688 170.601562 25.519531 167.644531 25.9375 164.699219 C 26.359375 161.753906 26.863281 158.820312 27.445312 155.902344 C 28.027344 152.984375 28.6875 150.085938 29.429688 147.203125 C 30.171875 144.324219 30.992188 141.464844 31.890625 138.625 C 32.789062 135.789062 33.765625 132.980469 34.820312 130.195312 C 35.871094 127.414062 37 124.664062 38.207031 121.941406 C 39.410156 119.21875 40.6875 116.535156 42.039062 113.882812 C 43.390625 111.234375 44.816406 108.621094 46.3125 106.050781 C 47.808594 103.476562 49.375 100.949219 51.007812 98.460938 C 52.644531 95.976562 54.34375 93.535156 56.113281 91.144531 C 57.882812 88.75 59.714844 86.40625 61.613281 84.117188 C 63.511719 81.824219 65.46875 79.585938 67.492188 77.402344 C 69.511719 75.214844 71.589844 73.089844 73.726562 71.019531 C 75.867188 68.949219 78.058594 66.941406 80.304688 64.988281 C 82.554688 63.039062 84.855469 61.15625 87.207031 59.332031 C 89.558594 57.507812 91.957031 55.75 94.40625 54.058594 C 96.855469 52.367188 99.347656 50.746094 101.886719 49.191406 C 104.421875 47.636719 107 46.15625 109.621094 44.742188 C 112.238281 43.328125 114.894531 41.988281 117.589844 40.722656 C 120.28125 39.457031 123.007812 38.265625 125.765625 37.148438 C 128.523438 36.03125 131.308594 34.992188 134.125 34.027344 C 136.941406 33.066406 139.78125 32.179688 142.644531 31.371094 C 145.507812 30.566406 148.390625 29.835938 151.296875 29.1875 C 154.199219 28.539062 157.121094 27.972656 160.054688 27.484375 C 162.992188 26.996094 165.9375 26.585938 168.894531 26.261719 C 171.851562 25.933594 174.816406 25.6875 177.789062 25.527344 C 180.757812 25.363281 183.734375 25.28125 186.707031 25.28125 C 189.683594 25.28125 192.65625 25.363281 195.628906 25.527344 C 198.601562 25.6875 201.566406 25.933594 204.523438 26.261719 C 207.480469 26.585938 210.425781 26.996094 213.363281 27.484375 C 216.296875 27.972656 219.214844 28.539062 222.121094 29.1875 C 225.023438 29.835938 227.910156 30.566406 230.773438 31.371094 C 233.636719 32.179688 236.476562 33.066406 239.292969 34.027344 C 242.109375 34.992188 244.894531 36.03125 247.652344 37.148438 C 250.410156 38.265625 253.136719 39.457031 255.828125 40.722656 C 258.523438 41.988281 261.175781 43.328125 263.796875 44.742188 C 266.414062 46.15625 268.996094 47.636719 271.53125 49.191406 C 274.070312 50.746094 276.5625 52.367188 279.011719 54.058594 C 281.457031 55.75 283.859375 57.507812 286.210938 59.332031 C 288.5625 61.15625 290.863281 63.039062 293.109375 64.992188 C 295.359375 66.941406 297.550781 68.949219 299.6875 71.019531 C 301.828125 73.089844 303.90625 75.21875 305.925781 77.402344 C 307.945312 79.585938 309.90625 81.824219 311.804688 84.117188 C 313.703125 86.40625 315.535156 88.75 317.304688 91.144531 C 319.074219 93.535156 320.773438 95.976562 322.410156 98.460938 C 324.042969 100.949219 325.609375 103.476562 327.105469 106.050781 C 328.601562 108.621094 330.023438 111.234375 331.375 113.882812 C 332.730469 116.535156 334.007812 119.21875 335.210938 121.941406 C 336.417969 124.664062 337.546875 127.414062 338.597656 130.199219 C 339.652344 132.980469 340.628906 135.789062 341.527344 138.625 C 342.425781 141.464844 343.246094 144.324219 343.988281 147.203125 C 344.730469 150.085938 345.390625 152.984375 345.972656 155.902344 C 346.554688 158.820312 347.058594 161.753906 347.476562 164.699219 C 347.898438 167.644531 348.238281 170.601562 348.496094 173.5625 C 348.757812 176.527344 348.933594 179.496094 349.027344 182.472656 C 349.125 185.445312 349.136719 188.421875 349.070312 191.394531 C 349.003906 194.371094 348.851562 197.339844 348.621094 200.308594 C 348.390625 203.273438 348.078125 206.230469 347.683594 209.179688 C 347.289062 212.132812 346.8125 215.066406 346.257812 217.992188 C 345.703125 220.914062 345.070312 223.820312 344.351562 226.707031 C 343.636719 229.597656 342.84375 232.464844 341.972656 235.308594 C 341.097656 238.152344 340.148438 240.972656 339.121094 243.765625 C 338.09375 246.554688 336.988281 249.320312 335.8125 252.050781 C 334.632812 254.78125 333.378906 257.480469 332.050781 260.144531 C 330.722656 262.804688 329.320312 265.429688 327.851562 268.015625 C 326.378906 270.601562 324.835938 273.144531 323.222656 275.648438 C 321.613281 278.148438 319.933594 280.605469 318.1875 283.011719 C 316.441406 285.421875 314.628906 287.78125 312.75 290.089844 C 310.875 292.398438 308.9375 294.65625 306.9375 296.859375 C 304.9375 299.0625 302.875 301.207031 300.757812 303.296875 C 298.640625 305.386719 296.464844 307.417969 294.234375 309.386719 C 292.003906 311.355469 289.722656 313.265625 287.386719 315.109375 C 285.054688 316.953125 282.667969 318.734375 280.238281 320.445312 C 277.804688 322.160156 275.324219 323.804688 272.804688 325.382812 C 270.28125 326.960938 267.714844 328.46875 265.109375 329.902344 L 270.71875 340.058594 C 272.8125 338.90625 274.882812 337.710938 276.929688 336.46875 C 278.972656 335.230469 280.992188 333.949219 282.984375 332.628906 C 284.976562 331.304688 286.941406 329.941406 288.878906 328.539062 C 290.816406 327.136719 292.722656 325.695312 294.601562 324.210938 C 296.476562 322.730469 298.324219 321.210938 300.136719 319.652344 C 301.953125 318.09375 303.734375 316.5 305.480469 314.867188 C 307.230469 313.234375 308.945312 311.570312 310.625 309.867188 C 312.304688 308.164062 313.949219 306.429688 315.554688 304.660156 C 317.164062 302.886719 318.734375 301.085938 320.269531 299.25 C 321.804688 297.417969 323.300781 295.550781 324.757812 293.652344 C 326.214844 291.757812 327.628906 289.832031 329.007812 287.878906 C 330.386719 285.921875 331.722656 283.941406 333.019531 281.929688 C 334.3125 279.921875 335.566406 277.882812 336.78125 275.824219 C 337.992188 273.761719 339.160156 271.675781 340.285156 269.566406 C 341.414062 267.457031 342.496094 265.324219 343.53125 263.167969 C 344.570312 261.015625 345.5625 258.839844 346.511719 256.644531 C 347.460938 254.449219 348.363281 252.234375 349.21875 250 C 350.078125 247.769531 350.886719 245.519531 351.652344 243.253906 C 352.417969 240.988281 353.132812 238.707031 353.804688 236.410156 C 354.472656 234.113281 355.097656 231.804688 355.671875 229.484375 C 356.246094 227.164062 356.773438 224.832031 357.253906 222.488281 C 357.730469 220.144531 358.164062 217.792969 358.542969 215.433594 C 358.925781 213.070312 359.257812 210.703125 359.542969 208.328125 C 359.828125 205.953125 360.0625 203.574219 360.25 201.191406 C 360.433594 198.808594 360.570312 196.417969 360.660156 194.03125 C 360.746094 191.640625 360.785156 189.25 360.773438 186.859375 C 360.765625 184.464844 360.703125 182.078125 360.59375 179.6875 C 360.484375 177.296875 360.328125 174.914062 360.117188 172.53125 C 359.910156 170.148438 359.65625 167.769531 359.347656 165.398438 C 359.042969 163.027344 358.6875 160.660156 358.285156 158.304688 C 357.882812 155.949219 357.429688 153.597656 356.929688 151.261719 C 356.429688 148.921875 355.882812 146.59375 355.285156 144.277344 C 354.691406 141.964844 354.046875 139.660156 353.355469 137.371094 C 352.664062 135.082031 351.925781 132.808594 351.140625 130.546875 C 350.355469 128.289062 349.523438 126.046875 348.648438 123.820312 C 347.769531 121.597656 346.847656 119.390625 345.878906 117.203125 C 344.910156 115.019531 343.898438 112.851562 342.839844 110.707031 C 341.785156 108.5625 340.683594 106.441406 339.539062 104.339844 C 338.390625 102.242188 337.203125 100.164062 335.972656 98.113281 C 334.742188 96.0625 333.472656 94.039062 332.15625 92.042969 C 330.84375 90.042969 329.488281 88.074219 328.09375 86.132812 C 326.699219 84.1875 325.261719 82.277344 323.789062 80.394531 C 322.316406 78.507812 320.800781 76.65625 319.25 74.835938 C 317.699219 73.015625 316.113281 71.226562 314.488281 69.472656 C 312.863281 67.71875 311.207031 65.996094 309.511719 64.308594 C 307.816406 62.621094 306.085938 60.972656 304.324219 59.355469 C 302.558594 57.738281 300.761719 56.160156 298.933594 54.621094 C 297.105469 53.078125 295.246094 51.574219 293.355469 50.109375 C 291.464844 48.644531 289.546875 47.21875 287.597656 45.835938 C 285.648438 44.449219 283.671875 43.105469 281.667969 41.800781 C 279.660156 40.496094 277.632812 39.234375 275.574219 38.011719 C 273.519531 36.792969 271.4375 35.613281 269.332031 34.480469 C 267.226562 33.34375 265.097656 32.253906 262.949219 31.207031 C 260.796875 30.160156 258.628906 29.15625 256.4375 28.199219 C 254.246094 27.242188 252.035156 26.332031 249.804688 25.464844 C 247.574219 24.597656 245.328125 23.777344 243.066406 23.003906 C 240.804688 22.230469 238.527344 21.503906 236.234375 20.824219 C 233.941406 20.144531 231.632812 19.511719 229.316406 18.929688 C 226.996094 18.34375 224.664062 17.804688 222.324219 17.316406 C 219.984375 16.828125 217.632812 16.390625 215.273438 15.996094 C 212.914062 15.605469 210.546875 15.261719 208.175781 14.96875 C 205.800781 14.675781 203.421875 14.429688 201.039062 14.234375 C 198.65625 14.035156 196.269531 13.890625 193.878906 13.792969 C 191.492188 13.695312 189.101562 13.644531 186.707031 13.648438 Z M 186.707031 13.648438 "/>
</g>
<path style=" stroke:none;fill-rule:nonzero;fill:rgb(1.959229%,21.958923%,41.958618%);fill-opacity:1;" d="M 113.007812 166.148438 L 95.605469 183.546875 C 95.335938 183.816406 95.097656 184.109375 94.882812 184.425781 C 94.671875 184.742188 94.496094 185.078125 94.347656 185.429688 C 94.203125 185.78125 94.09375 186.140625 94.019531 186.515625 C 93.945312 186.890625 93.90625 187.265625 93.90625 187.648438 C 93.90625 188.027344 93.945312 188.40625 94.019531 188.777344 C 94.09375 189.152344 94.203125 189.515625 94.347656 189.867188 C 94.496094 190.21875 94.671875 190.550781 94.882812 190.867188 C 95.097656 191.1875 95.335938 191.480469 95.605469 191.746094 L 113.007812 209.148438 L 121.207031 200.945312 L 113.707031 193.445312 L 186.707031 193.445312 C 187.089844 193.445312 187.464844 193.410156 187.839844 193.335938 C 188.214844 193.261719 188.578125 193.152344 188.929688 193.003906 C 189.28125 192.859375 189.613281 192.679688 189.929688 192.46875 C 190.246094 192.257812 190.539062 192.019531 190.808594 191.75 C 191.078125 191.480469 191.320312 191.1875 191.53125 190.871094 C 191.742188 190.554688 191.921875 190.21875 192.066406 189.867188 C 192.210938 189.515625 192.324219 189.152344 192.398438 188.777344 C 192.472656 188.40625 192.507812 188.027344 192.507812 187.648438 L 192.507812 68.25 L 200.007812 75.746094 L 208.210938 67.546875 L 190.808594 50.148438 C 190.539062 49.878906 190.246094 49.636719 189.929688 49.425781 C 189.613281 49.214844 189.28125 49.035156 188.925781 48.890625 C 188.574219 48.746094 188.214844 48.632812 187.839844 48.558594 C 187.464844 48.484375 187.089844 48.449219 186.707031 48.449219 C 186.328125 48.449219 185.949219 48.484375 185.578125 48.558594 C 185.203125 48.632812 184.839844 48.746094 184.488281 48.890625 C 184.136719 49.035156 183.804688 49.214844 183.488281 49.425781 C 183.171875 49.636719 182.878906 49.878906 182.609375 50.148438 L 165.207031 67.546875 L 173.410156 75.746094 L 180.910156 68.25 L 180.910156 181.847656 L 113.707031 181.847656 L 121.207031 174.347656 Z M 113.007812 166.148438 "/>
<path style=" stroke:none;fill-rule:nonzero;fill:rgb(1.959229%,21.958923%,41.958618%);fill-opacity:1;" d="M 320.332031 203.75 C 320.773438 203.285156 321.195312 202.804688 321.589844 202.304688 C 321.988281 201.800781 322.359375 201.285156 322.703125 200.746094 C 323.050781 200.210938 323.371094 199.65625 323.664062 199.089844 C 323.957031 198.523438 324.226562 197.941406 324.464844 197.347656 C 324.703125 196.757812 324.910156 196.152344 325.09375 195.539062 C 325.273438 194.925781 325.421875 194.308594 325.546875 193.679688 C 325.667969 193.050781 325.757812 192.421875 325.820312 191.785156 C 325.878906 191.148438 325.910156 190.511719 325.910156 189.871094 C 325.910156 189.234375 325.878906 188.59375 325.820312 187.957031 C 325.757812 187.324219 325.667969 186.691406 325.546875 186.0625 C 325.421875 185.4375 325.273438 184.816406 325.09375 184.203125 C 324.910156 183.589844 324.703125 182.988281 324.464844 182.394531 C 324.226562 181.800781 323.957031 181.21875 323.664062 180.652344 C 323.371094 180.085938 323.050781 179.535156 322.703125 178.996094 C 322.359375 178.460938 321.988281 177.941406 321.589844 177.4375 C 321.195312 176.9375 320.773438 176.457031 320.332031 175.996094 C 319.898438 175.542969 319.441406 175.113281 318.964844 174.703125 C 318.488281 174.296875 317.992188 173.917969 317.476562 173.558594 C 316.960938 173.203125 316.425781 172.871094 315.878906 172.570312 C 315.328125 172.265625 314.765625 171.992188 314.1875 171.746094 C 313.613281 171.5 313.023438 171.28125 312.425781 171.09375 C 311.828125 170.910156 311.21875 170.753906 310.605469 170.625 C 309.992188 170.5 309.371094 170.40625 308.746094 170.34375 C 308.125 170.28125 307.496094 170.25 306.871094 170.25 C 306.242188 170.25 305.617188 170.28125 304.992188 170.34375 C 304.367188 170.40625 303.75 170.5 303.136719 170.625 C 302.519531 170.753906 301.914062 170.910156 301.316406 171.09375 C 300.714844 171.28125 300.128906 171.5 299.550781 171.746094 C 298.972656 171.992188 298.410156 172.265625 297.863281 172.570312 C 297.3125 172.871094 296.78125 173.203125 296.265625 173.558594 C 295.75 173.917969 295.253906 174.296875 294.773438 174.703125 C 294.296875 175.113281 293.84375 175.542969 293.40625 175.996094 L 285.3125 184.335938 L 277.191406 175.996094 C 276.757812 175.542969 276.300781 175.113281 275.824219 174.703125 C 275.347656 174.296875 274.851562 173.917969 274.335938 173.558594 C 273.816406 173.203125 273.285156 172.871094 272.738281 172.570312 C 272.1875 172.265625 271.625 171.992188 271.046875 171.746094 C 270.46875 171.5 269.882812 171.28125 269.285156 171.09375 C 268.683594 170.910156 268.078125 170.753906 267.464844 170.625 C 266.847656 170.5 266.230469 170.40625 265.605469 170.34375 C 264.980469 170.28125 264.355469 170.25 263.730469 170.25 C 263.101562 170.25 262.476562 170.28125 261.851562 170.34375 C 261.226562 170.40625 260.609375 170.5 259.992188 170.625 C 259.378906 170.753906 258.773438 170.910156 258.171875 171.09375 C 257.574219 171.28125 256.988281 171.5 256.410156 171.746094 C 255.832031 171.992188 255.269531 172.265625 254.722656 172.570312 C 254.171875 172.871094 253.640625 173.203125 253.125 173.558594 C 252.605469 173.917969 252.109375 174.296875 251.632812 174.703125 C 251.15625 175.113281 250.699219 175.542969 250.265625 175.996094 C 249.824219 176.457031 249.40625 176.9375 249.007812 177.4375 C 248.613281 177.941406 248.242188 178.460938 247.894531 178.996094 C 247.546875 179.535156 247.226562 180.085938 246.933594 180.652344 C 246.640625 181.21875 246.375 181.800781 246.136719 182.394531 C 245.898438 182.988281 245.6875 183.589844 245.507812 184.203125 C 245.328125 184.816406 245.175781 185.4375 245.054688 186.0625 C 244.933594 186.691406 244.839844 187.324219 244.78125 187.957031 C 244.71875 188.59375 244.6875 189.234375 244.6875 189.871094 C 244.6875 190.511719 244.71875 191.148438 244.78125 191.785156 C 244.839844 192.421875 244.933594 193.050781 245.054688 193.679688 C 245.175781 194.308594 245.328125 194.925781 245.507812 195.539062 C 245.6875 196.152344 245.898438 196.757812 246.136719 197.347656 C 246.375 197.941406 246.640625 198.523438 246.933594 199.089844 C 247.226562 199.65625 247.546875 200.210938 247.894531 200.746094 C 248.242188 201.285156 248.613281 201.800781 249.007812 202.304688 C 249.40625 202.804688 249.824219 203.285156 250.265625 203.75 L 285.3125 239.847656 Z M 320.332031 203.75 "/>
<path style=" stroke:none;fill-rule:nonzero;fill:rgb(1.959229%,21.958923%,41.958618%);fill-opacity:1;" d="M 238.910156 239.847656 L 250.511719 239.847656 L 250.511719 251.445312 L 238.910156 251.445312 Z M 238.910156 239.847656 "/>
<g clip-path="url(#clip2)" clip-rule="nonzero">
<path style=" stroke:none;fill-rule:nonzero;fill:rgb(1.959229%,21.958923%,41.958618%);fill-opacity:1;" d="M 134.507812 303.648438 L 134.507812 361.648438 L 238.910156 361.648438 L 238.910156 303.648438 C 238.910156 303.078125 238.882812 302.507812 238.824219 301.941406 C 238.769531 301.375 238.6875 300.8125 238.574219 300.253906 C 238.464844 299.695312 238.324219 299.140625 238.160156 298.597656 C 237.996094 298.050781 237.804688 297.515625 237.585938 296.988281 C 237.367188 296.460938 237.125 295.949219 236.855469 295.445312 C 236.585938 294.941406 236.292969 294.453125 235.976562 293.980469 C 235.660156 293.507812 235.320312 293.050781 234.960938 292.609375 C 234.597656 292.167969 234.214844 291.746094 233.8125 291.34375 C 233.410156 290.941406 232.988281 290.558594 232.546875 290.195312 C 232.109375 289.835938 231.648438 289.496094 231.175781 289.179688 C 230.703125 288.863281 230.214844 288.570312 229.710938 288.300781 C 229.210938 288.03125 228.695312 287.789062 228.167969 287.570312 C 227.640625 287.355469 227.105469 287.160156 226.558594 286.996094 C 226.015625 286.832031 225.464844 286.691406 224.902344 286.582031 C 224.34375 286.46875 223.78125 286.386719 223.214844 286.332031 C 222.648438 286.273438 222.078125 286.246094 221.507812 286.246094 L 151.90625 286.246094 C 151.335938 286.246094 150.769531 286.273438 150.203125 286.332031 C 149.636719 286.386719 149.070312 286.46875 148.511719 286.582031 C 147.953125 286.691406 147.402344 286.832031 146.855469 286.996094 C 146.3125 287.160156 145.773438 287.355469 145.25 287.570312 C 144.722656 287.789062 144.207031 288.03125 143.707031 288.300781 C 143.203125 288.570312 142.714844 288.863281 142.242188 289.179688 C 141.765625 289.496094 141.308594 289.835938 140.867188 290.195312 C 140.429688 290.558594 140.007812 290.941406 139.605469 291.34375 C 139.199219 291.746094 138.820312 292.167969 138.457031 292.609375 C 138.09375 293.050781 137.757812 293.507812 137.441406 293.980469 C 137.125 294.453125 136.832031 294.941406 136.5625 295.445312 C 136.292969 295.949219 136.050781 296.460938 135.832031 296.988281 C 135.613281 297.515625 135.421875 298.050781 135.257812 298.597656 C 135.089844 299.140625 134.953125 299.695312 134.839844 300.253906 C 134.730469 300.8125 134.648438 301.375 134.589844 301.941406 C 134.535156 302.507812 134.507812 303.078125 134.507812 303.648438 Z M 134.507812 303.648438 "/>
</g>
<path style=" stroke:none;fill-rule:nonzero;fill:rgb(1.959229%,21.958923%,41.958618%);fill-opacity:1;" d="M 212.808594 260.148438 C 212.808594 261.003906 212.765625 261.855469 212.683594 262.707031 C 212.601562 263.554688 212.472656 264.402344 212.308594 265.238281 C 212.140625 266.078125 211.933594 266.90625 211.683594 267.722656 C 211.4375 268.542969 211.148438 269.34375 210.824219 270.136719 C 210.496094 270.925781 210.128906 271.695312 209.726562 272.449219 C 209.324219 273.203125 208.886719 273.9375 208.410156 274.648438 C 207.933594 275.359375 207.425781 276.042969 206.882812 276.703125 C 206.34375 277.367188 205.769531 278 205.164062 278.601562 C 204.558594 279.207031 203.925781 279.78125 203.265625 280.324219 C 202.605469 280.863281 201.921875 281.375 201.210938 281.847656 C 200.5 282.324219 199.765625 282.761719 199.011719 283.164062 C 198.257812 283.566406 197.488281 283.933594 196.695312 284.261719 C 195.90625 284.585938 195.101562 284.875 194.285156 285.125 C 193.46875 285.371094 192.640625 285.578125 191.800781 285.746094 C 190.960938 285.914062 190.117188 286.039062 189.265625 286.121094 C 188.417969 286.207031 187.5625 286.246094 186.707031 286.246094 C 185.855469 286.246094 185 286.207031 184.148438 286.121094 C 183.300781 286.039062 182.453125 285.914062 181.617188 285.746094 C 180.777344 285.578125 179.949219 285.371094 179.132812 285.125 C 178.3125 284.875 177.511719 284.585938 176.71875 284.261719 C 175.929688 283.933594 175.160156 283.566406 174.40625 283.164062 C 173.652344 282.761719 172.917969 282.324219 172.207031 281.847656 C 171.496094 281.375 170.8125 280.863281 170.152344 280.324219 C 169.488281 279.78125 168.855469 279.207031 168.253906 278.601562 C 167.648438 278 167.074219 277.367188 166.53125 276.703125 C 165.988281 276.042969 165.480469 275.359375 165.007812 274.648438 C 164.53125 273.9375 164.09375 273.203125 163.691406 272.449219 C 163.285156 271.695312 162.921875 270.925781 162.59375 270.136719 C 162.265625 269.34375 161.980469 268.542969 161.730469 267.722656 C 161.484375 266.90625 161.277344 266.078125 161.109375 265.238281 C 160.941406 264.402344 160.816406 263.554688 160.734375 262.707031 C 160.648438 261.855469 160.609375 261.003906 160.609375 260.148438 C 160.609375 259.292969 160.648438 258.441406 160.734375 257.589844 C 160.816406 256.738281 160.941406 255.894531 161.109375 255.054688 C 161.277344 254.21875 161.484375 253.390625 161.730469 252.570312 C 161.980469 251.753906 162.265625 250.949219 162.59375 250.160156 C 162.921875 249.371094 163.285156 248.597656 163.691406 247.84375 C 164.09375 247.089844 164.53125 246.359375 165.007812 245.648438 C 165.480469 244.9375 165.988281 244.25 166.53125 243.589844 C 167.074219 242.929688 167.648438 242.296875 168.253906 241.691406 C 168.855469 241.085938 169.488281 240.515625 170.152344 239.972656 C 170.8125 239.429688 171.496094 238.921875 172.207031 238.445312 C 172.917969 237.972656 173.652344 237.53125 174.40625 237.128906 C 175.160156 236.726562 175.929688 236.359375 176.71875 236.035156 C 177.511719 235.707031 178.3125 235.417969 179.132812 235.171875 C 179.949219 234.921875 180.777344 234.714844 181.617188 234.546875 C 182.453125 234.382812 183.300781 234.257812 184.148438 234.171875 C 185 234.089844 185.855469 234.046875 186.707031 234.046875 C 187.5625 234.046875 188.417969 234.089844 189.265625 234.171875 C 190.117188 234.257812 190.960938 234.382812 191.800781 234.546875 C 192.640625 234.714844 193.46875 234.921875 194.285156 235.171875 C 195.101562 235.417969 195.90625 235.707031 196.695312 236.035156 C 197.488281 236.359375 198.257812 236.726562 199.011719 237.128906 C 199.765625 237.53125 200.5 237.972656 201.210938 238.445312 C 201.921875 238.921875 202.605469 239.429688 203.265625 239.972656 C 203.925781 240.515625 204.558594 241.085938 205.164062 241.691406 C 205.769531 242.296875 206.34375 242.929688 206.882812 243.589844 C 207.425781 244.25 207.933594 244.9375 208.410156 245.648438 C 208.886719 246.359375 209.324219 247.089844 209.726562 247.84375 C 210.128906 248.597656 210.496094 249.371094 210.824219 250.160156 C 211.148438 250.949219 211.4375 251.753906 211.683594 252.570312 C 211.933594 253.390625 212.140625 254.21875 212.308594 255.054688 C 212.472656 255.894531 212.601562 256.738281 212.683594 257.589844 C 212.765625 258.441406 212.808594 259.292969 212.808594 260.148438 Z M 212.808594 260.148438 "/>
<g clip-path="url(#clip3)" clip-rule="nonzero">
<path style=" stroke:none;fill-rule:nonzero;fill:rgb(1.959229%,21.958923%,41.958618%);fill-opacity:1;" d="M 293.851562 130.390625 L 264.476562 139.71875 L 231.078125 129.6875 C 231.078125 129.6875 231.074219 129.6875 231.074219 129.6875 L 198.226562 119.816406 L 262.484375 99.945312 L 326.945312 119.882812 Z M 292.171875 147.613281 C 288.261719 151.503906 277.300781 154.867188 262.484375 154.867188 C 247.664062 154.867188 236.703125 151.503906 232.796875 147.613281 L 232.796875 135.234375 L 263.800781 144.550781 C 263.914062 144.585938 264.03125 144.609375 264.152344 144.628906 C 264.183594 144.632812 264.214844 144.628906 264.246094 144.632812 C 264.328125 144.644531 264.410156 144.652344 264.496094 144.652344 C 264.5 144.652344 264.503906 144.652344 264.507812 144.652344 C 264.574219 144.652344 264.640625 144.640625 264.710938 144.636719 C 264.761719 144.628906 264.816406 144.628906 264.871094 144.621094 C 264.992188 144.601562 265.113281 144.574219 265.230469 144.539062 L 292.171875 135.980469 Z M 284.472656 160.003906 C 278.632812 161.800781 270.824219 162.789062 262.484375 162.789062 C 254.140625 162.789062 246.332031 161.800781 240.492188 160.003906 C 234.84375 158.269531 232.796875 156.261719 232.796875 155.332031 L 232.796875 154.902344 C 234.40625 156.121094 236.453125 157.207031 238.90625 158.128906 C 243.683594 159.921875 249.738281 161.023438 256.414062 161.308594 C 256.433594 161.308594 256.449219 161.3125 256.46875 161.3125 C 257.152344 161.3125 257.71875 160.773438 257.746094 160.089844 C 257.777344 159.386719 257.230469 158.789062 256.523438 158.761719 C 245.390625 158.28125 236.363281 155.449219 232.796875 151.488281 L 232.796875 149.863281 C 234.445312 151.117188 236.699219 152.257812 239.5 153.238281 C 245.652344 155.386719 253.816406 156.570312 262.484375 156.570312 C 271.152344 156.570312 279.3125 155.386719 285.464844 153.238281 C 288.265625 152.257812 290.519531 151.117188 292.171875 149.863281 L 292.171875 155.332031 C 292.171875 156.261719 290.121094 158.269531 284.472656 160.003906 Z M 209.023438 175.675781 C 207.394531 175.675781 205.804688 175.183594 204.464844 174.277344 L 207.417969 163.058594 C 207.4375 163.066406 207.453125 163.074219 207.472656 163.082031 C 207.503906 163.097656 207.535156 163.113281 207.566406 163.128906 L 206.242188 171.191406 C 206.164062 171.65625 206.476562 172.09375 206.945312 172.167969 C 206.988281 172.175781 207.035156 172.179688 207.082031 172.179688 C 207.492188 172.179688 207.851562 171.882812 207.921875 171.464844 L 209.242188 163.449219 C 209.300781 163.445312 209.363281 163.441406 209.417969 163.4375 C 209.460938 163.429688 209.5 163.421875 209.542969 163.417969 C 209.628906 163.402344 209.71875 163.386719 209.804688 163.367188 C 209.847656 163.355469 209.890625 163.34375 209.9375 163.332031 C 210.019531 163.3125 210.101562 163.285156 210.179688 163.253906 C 210.21875 163.242188 210.261719 163.226562 210.300781 163.210938 C 210.398438 163.171875 210.488281 163.128906 210.582031 163.082031 C 210.597656 163.074219 210.617188 163.066406 210.632812 163.058594 L 213.585938 174.277344 C 212.246094 175.183594 210.65625 175.675781 209.023438 175.675781 Z M 209.023438 160.910156 C 208.550781 160.910156 208.167969 160.523438 208.167969 160.050781 C 208.167969 159.582031 208.550781 159.195312 209.023438 159.195312 C 209.5 159.195312 209.882812 159.582031 209.882812 160.050781 C 209.882812 160.523438 209.5 160.910156 209.023438 160.910156 Z M 335.71875 117.550781 L 263.199219 95.121094 C 262.734375 94.976562 262.234375 94.976562 261.769531 95.121094 L 189.246094 117.550781 C 188.234375 117.863281 187.542969 118.800781 187.546875 119.859375 C 187.550781 120.921875 188.25 121.851562 189.265625 122.15625 L 207.746094 127.710938 L 207.746094 156.894531 C 206.554688 157.378906 205.703125 158.511719 205.621094 159.847656 L 201.773438 174.453125 C 201.648438 174.933594 201.808594 175.441406 202.191406 175.757812 C 204.105469 177.351562 206.53125 178.230469 209.023438 178.230469 C 211.519531 178.230469 213.945312 177.351562 215.859375 175.757812 C 216.242188 175.441406 216.402344 174.933594 216.277344 174.453125 L 212.429688 159.847656 C 212.351562 158.511719 211.496094 157.378906 210.304688 156.894531 L 210.304688 128.476562 L 227.964844 133.785156 L 227.964844 155.332031 C 227.964844 158.007812 229.894531 161.789062 239.074219 164.609375 C 245.359375 166.542969 253.675781 167.605469 262.484375 167.605469 C 271.292969 167.605469 279.605469 166.542969 285.894531 164.609375 C 295.074219 161.789062 297 158.007812 297 155.332031 L 297 134.449219 L 335.738281 122.148438 C 336.742188 121.828125 337.421875 120.894531 337.417969 119.839844 C 337.414062 118.789062 336.726562 117.859375 335.71875 117.550781 "/>
</g>
<path style=" stroke:none;fill-rule:nonzero;fill:rgb(1.959229%,21.958923%,41.958618%);fill-opacity:1;" d="M 233.105469 125.503906 L 209.382812 118.609375 C 208.707031 118.410156 207.996094 118.800781 207.796875 119.476562 C 207.601562 120.152344 207.988281 120.859375 208.667969 121.058594 L 232.390625 127.953125 C 232.507812 127.988281 232.628906 128.003906 232.746094 128.003906 C 233.300781 128.003906 233.8125 127.644531 233.972656 127.085938 C 234.171875 126.410156 233.78125 125.703125 233.105469 125.503906 "/>
<path style=" stroke:none;fill-rule:nonzero;fill:rgb(1.959229%,21.958923%,41.958618%);fill-opacity:1;" d="M 247.855469 129.75 L 237.910156 127.058594 C 237.230469 126.871094 236.527344 127.273438 236.34375 127.953125 C 236.15625 128.632812 236.5625 129.335938 237.242188 129.519531 L 247.183594 132.210938 C 247.296875 132.242188 247.410156 132.257812 247.519531 132.257812 C 248.082031 132.257812 248.597656 131.882812 248.753906 131.316406 C 248.9375 130.636719 248.535156 129.933594 247.855469 129.75 "/>
<path style=" stroke:none;fill-rule:nonzero;fill:rgb(1.959229%,21.958923%,41.958618%);fill-opacity:1;" d="M 231.429688 123.570312 L 241.230469 126.121094 C 241.339844 126.148438 241.449219 126.164062 241.554688 126.164062 C 242.121094 126.164062 242.640625 125.78125 242.789062 125.207031 C 242.96875 124.527344 242.558594 123.832031 241.875 123.652344 L 232.074219 121.101562 C 231.394531 120.925781 230.695312 121.332031 230.515625 122.015625 C 230.335938 122.695312 230.746094 123.394531 231.429688 123.570312 "/>
<path style=" stroke:none;fill-rule:nonzero;fill:rgb(1.959229%,21.958923%,41.958618%);fill-opacity:1;" d="M 287.769531 112.214844 L 302.96875 116.894531 C 303.09375 116.933594 303.21875 116.949219 303.34375 116.949219 C 303.890625 116.949219 304.398438 116.597656 304.566406 116.050781 C 304.773438 115.378906 304.394531 114.664062 303.71875 114.457031 L 288.523438 109.777344 C 287.847656 109.570312 287.132812 109.949219 286.921875 110.621094 C 286.714844 111.296875 287.09375 112.007812 287.769531 112.214844 "/>
<path style=" stroke:none;fill-rule:nonzero;fill:rgb(1.959229%,21.958923%,41.958618%);fill-opacity:1;" d="M 308.785156 118.449219 L 313.757812 120.011719 C 313.882812 120.050781 314.011719 120.070312 314.140625 120.070312 C 314.683594 120.070312 315.1875 119.71875 315.359375 119.175781 C 315.570312 118.503906 315.195312 117.785156 314.523438 117.578125 L 309.550781 116.015625 C 308.875 115.804688 308.160156 116.179688 307.949219 116.851562 C 307.738281 117.523438 308.109375 118.238281 308.785156 118.449219 "/>
<path style=" stroke:none;fill-rule:nonzero;fill:rgb(1.959229%,21.958923%,41.958618%);fill-opacity:1;" d="M 209.875 165.886719 C 209.871094 165.886719 209.867188 165.886719 209.859375 165.886719 C 209.390625 165.894531 209.015625 166.28125 209.023438 166.75 L 209.117188 172.476562 C 209.125 172.941406 209.503906 173.3125 209.96875 173.3125 C 209.972656 173.3125 209.976562 173.3125 209.984375 173.3125 C 210.453125 173.304688 210.828125 172.917969 210.820312 172.449219 L 210.726562 166.722656 C 210.71875 166.257812 210.339844 165.886719 209.875 165.886719 "/>
</g>
</svg>
